# xmcd
#
# Track frame offsets: 
#        150
#        15383
#        27356
#        42839
#        61316
#        75696
#        90334
#        106515
#        122688
#        133771
#
# Disc length: 1998 seconds
#
# Revision: 0
# Processed by: cddbd v1.5.2PL0 Copyright (c) Steve Scherf et al.
# Submitted via: ExactAudioCopy v0.99pb4
#
DISCID=6d07cc0a
DTITLE=Various Artist - 80's Country Radio
DYEAR=2005
DGENRE=Country
TTITLE0=Lacy J. Dalton - Takin' it easy
TTITLE1=Moe Bandy - She's not really cheatin'
TTITLE2=Exile - Crazy for your love
TTITLE3=Juice Newton - The sweetest thing
TTITLE4=T. Graham Brown - Darlene
TTITLE5=Holly Dunn - Love someone like me
TTITLE6=T.G. Sheppard - I loved 'em, every one
TTITLE7=Mickey Gilley - A headache tomorrow
TTITLE8=Janie Fricke - Don't worry 'bout me baby
TTITLE9=Exile - She's a miracle
EXTD=
EXTT0=
EXTT1=
EXTT2=
EXTT3=
EXTT4=
EXTT5=
EXTT6=
EXTT7=
EXTT8=
EXTT9=
PLAYORDER=
